<svg width="135" height="23" viewBox="0 0 135 23" fill="none" xmlns="http://www.w3.org/2000/svg">
<path fill-rule="evenodd" clip-rule="evenodd" d="M36.0702 0.400391L24.5607 22.9004H13.75L18.5667 13.5754H18.3506C14.3769 18.7339 8.44788 22.1298 0 22.9004V13.7045C0 13.7045 5.40431 13.3853 8.58135 10.0451H0V0.400568H9.64451V8.33304L9.86098 8.33215L13.8021 0.400568H21.096V8.28274L21.3124 8.28239L25.4014 0.400391H36.0702Z" fill="#0B0A09"/>
<path d="M98.833 20.4169H101.939V2.58789H98.833V20.4169Z" fill="#0B0A09"/>
<path fill-rule="evenodd" clip-rule="evenodd" d="M81.7092 20.2348C82.3842 20.5155 83.0707 20.6558 83.7686 20.6558C84.9214 20.6558 85.9531 20.3752 86.8633 19.8138C87.7734 19.2526 88.4789 18.479 88.9796 17.4928C89.4802 16.4992 89.7304 15.3727 89.7304 14.1136C89.7304 12.8545 89.4726 11.7281 88.9568 10.7344C88.4409 9.74078 87.7242 8.97089 86.8063 8.42475C85.8886 7.87104 84.8456 7.59797 83.6774 7.60555C82.9342 7.60555 82.2212 7.74967 81.5384 8.03791C80.8558 8.32615 80.2869 8.73575 79.8318 9.26671C79.7967 9.30713 79.7626 9.34796 79.7294 9.3892V2.59933H76.6119V20.417H79.7067L79.7004 18.7525C79.7804 18.8506 79.8661 18.9465 79.9569 19.0402C80.4499 19.5485 81.0341 19.9466 81.7092 20.2348ZM84.8949 17.3563C84.3867 17.6673 83.8064 17.8228 83.1541 17.8228C82.5093 17.8228 81.9177 17.6635 81.3792 17.345C80.8406 17.0187 80.4121 16.5751 80.0934 16.0137C79.7824 15.4525 79.6269 14.8152 79.6269 14.1022C79.6194 13.3892 79.7711 12.7521 80.0821 12.1908C80.4007 11.6219 80.8292 11.182 81.3678 10.871C81.9063 10.5524 82.5018 10.3969 83.1541 10.4045C83.8064 10.3969 84.3867 10.5486 84.8949 10.8596C85.4107 11.163 85.8051 11.5991 86.0782 12.168C86.3588 12.7293 86.4992 13.3741 86.4992 14.1022C86.4992 14.8305 86.3588 15.4752 86.0782 16.0365C85.8051 16.5978 85.4107 17.0377 84.8949 17.3563Z" fill="#0B0A09"/>
<path d="M40.5701 3.66882H44.1199L47.2954 15.2658L50.6736 3.66882H53.6318L57.2954 15.0331L60.3447 3.66882H63.5987L58.7973 20.4169H55.7367L52.0112 9.31492L48.5914 20.4169H45.4967L40.5701 3.66882Z" fill="#0B0A09"/>
<path fill-rule="evenodd" clip-rule="evenodd" d="M68.8413 20.7127C67.6048 20.7203 66.4898 20.4472 65.4962 19.8935C64.51 19.3322 63.7327 18.5547 63.1637 17.561C62.6024 16.5674 62.3218 15.4334 62.3218 14.159C62.3218 12.9227 62.61 11.8039 63.1865 10.8027C63.7629 9.80141 64.5442 9.02013 65.5303 8.45883C66.5164 7.89753 67.6162 7.61688 68.8298 7.61688C70.1952 7.61688 71.3898 7.92028 72.4138 8.52709C73.4454 9.13391 74.2153 9.99483 74.7235 11.1098C75.2393 12.2173 75.4252 13.4878 75.281 14.9214H65.5352C65.5624 15.4925 65.7049 16.0122 65.9627 16.4802C66.2509 16.9959 66.6529 17.3979 67.1686 17.6862C67.6845 17.9744 68.2609 18.1185 68.8982 18.1185C69.3835 18.1109 69.8349 18.0275 70.252 17.8683C70.6693 17.7014 71.0219 17.4777 71.3102 17.1969C71.606 16.9163 71.8147 16.5978 71.936 16.2413H75.19C74.9928 17.1135 74.5984 17.891 74.0068 18.5737C73.415 19.2488 72.6718 19.7759 71.7766 20.1552C70.8817 20.5344 69.9032 20.7203 68.8413 20.7127ZM65.974 11.7925C65.7923 12.1095 65.6663 12.4508 65.5962 12.8165H72.0565C72.0097 12.3545 71.867 11.9336 71.6288 11.5536C71.3557 11.1061 70.984 10.7609 70.5138 10.5182C70.0435 10.2679 69.5125 10.1427 68.9209 10.1427C68.2913 10.1427 67.7187 10.2869 67.2028 10.5751C66.687 10.8633 66.2774 11.2691 65.974 11.7925Z" fill="#0B0A09"/>
<path d="M92.0178 7.8786C92.0178 6.86218 92.249 5.95955 92.7118 5.17068C93.1744 4.37425 93.823 3.75605 94.6574 3.31611C95.4993 2.86858 96.4816 2.63723 97.6041 2.62207V5.38686C97.0808 5.39445 96.6333 5.50443 96.2616 5.71682C95.8975 5.92162 95.6169 6.22123 95.4196 6.61566C95.2381 6.97878 95.1401 7.39976 95.1258 7.8786H97.5359V10.5069H95.1239V20.4169H92.0178V10.5069H90.0153V7.8786H92.0178Z" fill="#0B0A09"/>
<path fill-rule="evenodd" clip-rule="evenodd" d="M109.835 20.6898C108.568 20.6898 107.434 20.413 106.433 19.8594C105.439 19.298 104.658 18.5244 104.089 17.5382C103.528 16.5446 103.247 15.4182 103.247 14.159C103.247 12.8924 103.528 11.7621 104.089 10.7685C104.658 9.76721 105.439 8.98974 106.433 8.43603C107.434 7.8823 108.568 7.60544 109.835 7.60544C111.109 7.60544 112.247 7.8823 113.248 8.43603C114.257 8.98974 115.042 9.76342 115.603 10.7571C116.165 11.7507 116.449 12.8847 116.457 14.159C116.449 15.4182 116.165 16.5446 115.603 17.5382C115.05 18.5244 114.268 19.298 113.259 19.8594C112.251 20.413 111.109 20.6898 109.835 20.6898ZM109.835 17.8341C110.502 17.8341 111.094 17.6824 111.61 17.379C112.126 17.068 112.524 16.6356 112.804 16.0819C113.085 15.5206 113.225 14.8796 113.225 14.159C113.225 13.4309 113.085 12.7861 112.804 12.2248C112.524 11.6635 112.126 11.2312 111.61 10.9278C111.094 10.6168 110.502 10.4613 109.835 10.4613C109.175 10.4613 108.587 10.6168 108.071 10.9278C107.563 11.2312 107.169 11.6635 106.888 12.2248C106.607 12.7861 106.471 13.4309 106.478 14.159C106.478 14.8796 106.619 15.5206 106.899 16.0819C107.188 16.6356 107.582 17.068 108.083 17.379C108.591 17.6824 109.175 17.8341 109.835 17.8341Z" fill="#0B0A09"/>
<path d="M119.813 7.87857H116.354L120.098 20.4169H123.124L125.586 12.4087L128.244 20.4169H131.225L134.98 7.87857H131.851L129.721 15.6829L127.367 7.87857H124.341L121.999 15.8548L119.813 7.87857Z" fill="#0B0A09"/>
</svg>
